<?xml version="1.0" encoding="iso-8859-1"?>
<!-- Uploaded to: SVG Repo, www.svgrepo.com, Generator: SVG Repo Mixer Tools -->
<svg fill="#000000" height="800px" width="800px" version="1.1" id="Layer_1" xmlns="http://www.w3.org/2000/svg" xmlns:xlink="http://www.w3.org/1999/xlink" 
	 viewBox="0 0 512 512" xml:space="preserve">
<g>
	<g>
		<path d="M256,0C156.509,0,72.453,115.019,72.453,251.17C72.453,381.066,198.302,512,256,512
			c57.698,0,183.547-130.934,183.547-260.83C439.547,115.019,355.491,0,256,0z M256,492.679
			c-43.481,0-164.226-120.113-164.226-241.509c0-125.679,75.208-231.849,164.226-231.849c89.019,0,164.226,106.17,164.226,231.849
			C420.226,372.566,299.481,492.679,256,492.679z"/>
	</g>
</g>
<g>
	<g>
		<path d="M219.816,269.896c-22.84-39.566-62.826-57.811-90.991-41.557c-28.174,16.274-32.349,60.01-9.509,99.576
			c17.198,29.783,44.089,47.49,68.359,47.49c7.967,0,15.66-1.915,22.627-5.934C238.476,353.198,242.656,309.462,219.816,269.896z
			 M200.641,352.736c-18.175,10.491-47.75-5.311-64.59-34.481c-16.845-29.179-15.731-62.689,2.434-73.179
			c3.821-2.208,8.146-3.255,12.759-3.255c17.292,0,38.538,14.698,51.835,37.736C219.924,308.736,218.807,342.245,200.641,352.736z"
			/>
	</g>
</g>
<g>
	<g>
		<path d="M384.193,228.34c-28.179-16.236-68.146,1.991-90.991,41.557c-22.84,39.566-18.665,83.302,9.509,99.576
			c6.972,4.019,14.656,5.934,22.632,5.934c24.264,0,51.165-17.707,68.359-47.49C416.542,288.349,412.368,244.613,384.193,228.34z
			 M376.967,318.255c-16.84,29.17-46.429,44.981-64.594,34.481c-18.165-10.49-19.278-44-2.434-73.179
			c16.849-29.179,46.443-44.972,64.594-34.481C392.698,255.566,393.811,289.075,376.967,318.255z"/>
	</g>
</g>
</svg>